<?xml version="1.0" encoding="UTF-8" standalone="no"?>
<!-- Created with Inkscape (http://www.inkscape.org/) -->

<svg
   xmlns:dc="http://purl.org/dc/elements/1.1/"
   xmlns:cc="http://creativecommons.org/ns#"
   xmlns:rdf="http://www.w3.org/1999/02/22-rdf-syntax-ns#"
   xmlns:svg="http://www.w3.org/2000/svg"
   xmlns="http://www.w3.org/2000/svg"
   xmlns:sodipodi="http://sodipodi.sourceforge.net/DTD/sodipodi-0.dtd"
   xmlns:inkscape="http://www.inkscape.org/namespaces/inkscape"
   width="120"
   height="80"
   id="svg2"
   version="1.1"
   inkscape:version="0.48.5 r10040"
   sodipodi:docname="action.svg"
   inkscape:export-filename="/home/abie/Projects/hafs.in/img/action.png"
   inkscape:export-xdpi="90"
   inkscape:export-ydpi="90">
  <defs
     id="defs4" />
  <sodipodi:namedview
     id="base"
     pagecolor="#ffffff"
     bordercolor="#666666"
     borderopacity="1.0"
     inkscape:pageopacity="0.0"
     inkscape:pageshadow="2"
     inkscape:zoom="2.8"
     inkscape:cx="27.068499"
     inkscape:cy="26.142765"
     inkscape:document-units="px"
     inkscape:current-layer="layer1"
     showgrid="false"
     inkscape:window-width="1366"
     inkscape:window-height="742"
     inkscape:window-x="0"
     inkscape:window-y="26"
     inkscape:window-maximized="1" />
  <metadata
     id="metadata7">
    <rdf:RDF>
      <cc:Work
         rdf:about="">
        <dc:format>image/svg+xml</dc:format>
        <dc:type
           rdf:resource="http://purl.org/dc/dcmitype/StillImage" />
        <dc:title></dc:title>
      </cc:Work>
    </rdf:RDF>
  </metadata>
  <g
     inkscape:label="Layer 1"
     inkscape:groupmode="layer"
     id="layer1"
     transform="translate(0,-972.36218)">
    <g
       id="Capa_1"
       transform="translate(72.622042,1028.0081)" />
    <path
       transform="matrix(-0.84251022,0,0,0.84251022,93.61702,1059.4978)"
       d="m 63.639608,38.583744 a 23.738585,23.738585 0 1 1 -47.477169,0 23.738585,23.738585 0 1 1 47.477169,0 z"
       sodipodi:ry="23.738585"
       sodipodi:rx="23.738585"
       sodipodi:cy="38.583744"
       sodipodi:cx="39.901024"
       id="path3828"
       style="fill:#071117;fill-opacity:0.92441861;fill-rule:nonzero;stroke:none"
       sodipodi:type="arc" />
    <path
       inkscape:connector-curvature="0"
       id="path3830"
       d="m 69.638792,1022.7992 c 0.07846,-0.012 0.147406,0 0.222892,0.036 0.148595,0.07 0.260041,0.2411 0.260041,0.4087 l 0,18.2771 c 0,0.1652 -0.111446,0.3002 -0.260041,0.3716 l -0.185743,0.037 c -0.09272,0 -0.181583,-0.012 -0.260041,-0.075 l -8.878533,-6.984 0,6.6497 c 0,0.1652 -0.07786,0.3001 -0.222892,0.3715 l -0.185743,0.037 c -0.09391,0 -0.179206,-0.013 -0.26004,-0.075 l -11.590387,-9.1386 c -0.102233,-0.082 -0.185744,-0.2058 -0.185744,-0.3342 0,-0.1272 0.08351,-0.2524 0.185744,-0.3344 l 11.590387,-9.1386 c 0.133139,-0.1 0.295999,-0.1504 0.445783,-0.075 0.145028,0.07 0.222892,0.241 0.222892,0.4086 l 0,6.6496 8.878533,-7.0209 c 0.06598,-0.051 0.144434,-0.065 0.222892,-0.075 z"
       style="fill:#0e232e;fill-opacity:1;fill-rule:nonzero;stroke:none" />
    <path
       sodipodi:type="arc"
       style="fill:#071117;fill-opacity:0.92441861;fill-rule:nonzero;stroke:none"
       id="path3838"
       sodipodi:cx="39.901024"
       sodipodi:cy="38.583744"
       sodipodi:rx="23.738585"
       sodipodi:ry="23.738585"
       d="m 63.639608,38.583744 a 23.738585,23.738585 0 1 1 -47.477169,0 23.738585,23.738585 0 1 1 47.477169,0 z"
       transform="matrix(0.84251022,0,0,0.84251022,-13.61702,1059.4978)" />
    <g
       id="g3873"
       transform="translate(-1.1501055,-0.87022398)"
       style="fill:#0e232e">
      <rect
         transform="matrix(0.70710678,-0.70710678,0.70710678,0.70710678,0,0)"
         ry="1.2626907"
         y="743.35132"
         x="-727.96149"
         height="4.4194174"
         width="24.622469"
         id="rect3869"
         style="fill:#0e232e;fill-opacity:1;fill-rule:nonzero;stroke:none" />
      <rect
         style="fill:#0e232e;fill-opacity:1;fill-rule:nonzero;stroke:none"
         id="rect3871"
         width="24.622469"
         height="4.4194174"
         x="-757.87225"
         y="713.44055"
         ry="1.2626907"
         transform="matrix(-0.70710678,-0.70710678,-0.70710678,0.70710678,0,0)" />
    </g>
    <path
       sodipodi:type="arc"
       style="fill:#071117;fill-opacity:0.92441861;fill-rule:nonzero;stroke:none"
       id="path3877"
       sodipodi:cx="39.901024"
       sodipodi:cy="38.583744"
       sodipodi:rx="23.738585"
       sodipodi:ry="23.738585"
       d="m 63.639608,38.583744 a 23.738585,23.738585 0 1 1 -47.477169,0 23.738585,23.738585 0 1 1 47.477169,0 z"
       transform="matrix(0.84251022,0,0,0.84251022,66.382979,1059.4978)" />
    <path
       style="fill:#0e232e;fill-opacity:1;fill-rule:nonzero;stroke:none"
       d="m 90.361209,1022.7992 c -0.0785,-0.012 -0.14741,0 -0.22289,0.036 -0.1486,0.07 -0.26005,0.2411 -0.26005,0.4087 l 0,18.2771 c 0,0.1652 0.11145,0.3002 0.26005,0.3716 l 0.18574,0.037 c 0.0927,0 0.18158,-0.012 0.26004,-0.075 l 8.87853,-6.984 0,6.6497 c 0,0.1652 0.0779,0.3001 0.22289,0.3715 l 0.18575,0.037 c 0.0939,0 0.179201,-0.013 0.260041,-0.075 l 11.59038,-9.1386 c 0.10224,-0.082 0.18575,-0.2058 0.18575,-0.3342 0,-0.1272 -0.0835,-0.2524 -0.18575,-0.3344 l -11.59038,-9.1386 c -0.133141,-0.1 -0.296001,-0.1504 -0.445791,-0.075 -0.14502,0.07 -0.22289,0.241 -0.22289,0.4086 l 0,6.6496 -8.87853,-7.0209 c -0.066,-0.051 -0.14443,-0.065 -0.22289,-0.075 z"
       id="path3879"
       inkscape:connector-curvature="0" />
    <path
       style="fill:#ffffff;fill-opacity:1;fill-rule:nonzero;stroke:none"
       d="m 69.638792,982.7992 c 0.07846,-0.012 0.147406,0 0.222892,0.036 0.148595,0.07 0.260041,0.2411 0.260041,0.4087 l 0,18.2771 c 0,0.1652 -0.111446,0.3002 -0.260041,0.3716 l -0.185743,0.037 c -0.09272,0 -0.181583,-0.012 -0.260041,-0.075 l -8.878533,-6.984 0,6.6497 c 0,0.1652 -0.07786,0.3001 -0.222892,0.3715 l -0.185743,0.037 c -0.09391,0 -0.179206,-0.013 -0.26004,-0.075 l -11.590387,-9.1386 c -0.102233,-0.082 -0.185744,-0.2058 -0.185744,-0.3342 0,-0.1272 0.08351,-0.2524 0.185744,-0.3344 l 11.590387,-9.1386 c 0.133139,-0.1 0.295999,-0.1504 0.445783,-0.075 0.145028,0.07 0.222892,0.241 0.222892,0.4086 l 0,6.6496 8.878533,-7.0209 c 0.06598,-0.051 0.144434,-0.065 0.222892,-0.075 z"
       id="path3883"
       inkscape:connector-curvature="0" />
    <g
       transform="translate(-1.1501055,-40.870223)"
       id="g3887"
       style="fill:#ffffff">
      <rect
         style="fill:#ffffff;fill-opacity:1;fill-rule:nonzero;stroke:none"
         id="rect3889"
         width="24.622469"
         height="4.4194174"
         x="-727.96149"
         y="743.35132"
         ry="1.2626907"
         transform="matrix(0.70710678,-0.70710678,0.70710678,0.70710678,0,0)" />
      <rect
         transform="matrix(-0.70710678,-0.70710678,-0.70710678,0.70710678,0,0)"
         ry="1.2626907"
         y="713.44055"
         x="-757.87225"
         height="4.4194174"
         width="24.622469"
         id="rect3891"
         style="fill:#ffffff;fill-opacity:1;fill-rule:nonzero;stroke:none" />
    </g>
    <path
       inkscape:connector-curvature="0"
       id="path3895"
       d="m 90.361209,982.7992 c -0.0785,-0.012 -0.14741,0 -0.22289,0.036 -0.1486,0.07 -0.26005,0.2411 -0.26005,0.4087 l 0,18.2771 c 0,0.1652 0.11145,0.3002 0.26005,0.3716 l 0.18574,0.037 c 0.0927,0 0.18158,-0.012 0.26004,-0.075 l 8.87853,-6.984 0,6.6497 c 0,0.1652 0.0779,0.3001 0.22289,0.3715 l 0.18575,0.037 c 0.0939,0 0.179201,-0.013 0.260041,-0.075 l 11.59038,-9.1386 c 0.10224,-0.082 0.18575,-0.2058 0.18575,-0.3342 0,-0.1272 -0.0835,-0.2524 -0.18575,-0.3344 l -11.59038,-9.1386 c -0.133141,-0.1 -0.296001,-0.1504 -0.445791,-0.075 -0.14502,0.07 -0.22289,0.241 -0.22289,0.4086 l 0,6.6496 -8.87853,-7.0209 c -0.066,-0.051 -0.14443,-0.065 -0.22289,-0.075 z"
       style="fill:#ffffff;fill-opacity:1;fill-rule:nonzero;stroke:none" />
  </g>
</svg>
