<?xml version="1.0" encoding="UTF-8" standalone="no"?>
<!-- Created with Inkscape (http://www.inkscape.org/) -->

<svg
   xmlns:dc="http://purl.org/dc/elements/1.1/"
   xmlns:cc="http://creativecommons.org/ns#"
   xmlns:rdf="http://www.w3.org/1999/02/22-rdf-syntax-ns#"
   xmlns:svg="http://www.w3.org/2000/svg"
   xmlns="http://www.w3.org/2000/svg"
   xmlns:sodipodi="http://sodipodi.sourceforge.net/DTD/sodipodi-0.dtd"
   xmlns:inkscape="http://www.inkscape.org/namespaces/inkscape"
   width="400"
   height="100"
   id="svg2998"
   version="1.1"
   inkscape:version="0.48.5 r10040"
   sodipodi:docname="menu.svg"
   inkscape:export-filename="/home/abie/Projects/hafs.in/img/menu-hdpi.png"
   inkscape:export-xdpi="90"
   inkscape:export-ydpi="90">
  <defs
     id="defs3000" />
  <sodipodi:namedview
     id="base"
     pagecolor="#ffffff"
     bordercolor="#666666"
     borderopacity="1.0"
     inkscape:pageopacity="0.0"
     inkscape:pageshadow="2"
     inkscape:zoom="1.4142136"
     inkscape:cx="194.72345"
     inkscape:cy="5.472575"
     inkscape:document-units="px"
     inkscape:current-layer="layer1"
     showgrid="false"
     inkscape:window-width="1366"
     inkscape:window-height="742"
     inkscape:window-x="0"
     inkscape:window-y="26"
     inkscape:window-maximized="1" />
  <metadata
     id="metadata3003">
    <rdf:RDF>
      <cc:Work
         rdf:about="">
        <dc:format>image/svg+xml</dc:format>
        <dc:type
           rdf:resource="http://purl.org/dc/dcmitype/StillImage" />
        <dc:title></dc:title>
      </cc:Work>
    </rdf:RDF>
  </metadata>
  <g
     inkscape:label="Layer 1"
     inkscape:groupmode="layer"
     id="layer1"
     transform="translate(0,-952.36218)">
    <g
       id="lab_1_"
       transform="matrix(1.4403615,0,0,1.4403615,587.05713,279.21932)"
       style="fill:#0e232e">
      <path
         id="path3071"
         d="M 20.682,3.732 C 20.209,3.26 19.582,3 18.914,3 18.246,3 17.619,3.26 17.144,3.733 l -1.41,1.412 C 15.261,5.617 15,6.245 15,6.914 c 0,0.471 0.129,0.922 0.371,1.313 L 1.794,13.666 c -0.908,0.399 -1.559,1.218 -1.742,2.189 -0.185,0.977 0.125,1.979 0.834,2.687 l 12.72,12.58 c 0.548,0.548 1.276,0.859 2.045,0.877 C 15.669,32 15.711,32 15.729,32 c 0.202,0 0.407,-0.021 0.61,-0.062 0.994,-0.206 1.808,-0.893 2.177,-1.828 l 5.342,-13.376 c 0.402,0.265 0.875,0.407 1.367,0.407 0.67,0 1.297,-0.261 1.768,-0.733 L 28.4,15 c 0.477,-0.474 0.738,-1.103 0.738,-1.773 0,-0.67 -0.262,-1.3 -0.732,-1.768 L 20.682,3.732 z m -4.023,25.635 c -0.124,0.313 -0.397,0.544 -0.727,0.612 -0.076,0.016 -0.153,0.022 -0.229,0.021 -0.254,-0.006 -0.499,-0.108 -0.682,-0.292 L 2.293,17.12 C 2.059,16.887 1.956,16.553 2.018,16.227 2.079,15.903 2.297,15.629 2.6,15.497 l 6.217,-2.49 c 4.189,1.393 8.379,0.051 12.57,4.522 L 16.659,29.367 z M 26.992,13.58 25.578,14.993 c -0.195,0.196 -0.512,0.196 -0.707,0 l -1.768,-1.767 -1.432,3.589 0.119,-0.303 C 18.78,13.507 15.721,13.128 12.961,12.789 12.074,12.68 11.214,12.566 10.369,12.384 L 18.86,8.983 17.145,7.268 c -0.195,-0.195 -0.195,-0.512 0,-0.707 l 1.414,-1.415 c 0.195,-0.195 0.512,-0.195 0.707,0 l 7.725,7.727 c 0.198,0.195 0.198,0.512 0.001,0.707 z"
         inkscape:connector-curvature="0"
         style="fill:#0e232e" />
      <path
         id="path3073"
         d="M 16.5,21 C 17.878,21 19,19.879 19,18.5 19,17.121 17.879,16 16.5,16 15.121,16 14,17.121 14,18.5 c 0,1.379 1.122,2.5 2.5,2.5 z m 0,-4 C 17.328,17 18,17.672 18,18.5 18,19.328 17.328,20 16.5,20 15.671,20 15,19.328 15,18.5 15,17.672 15.671,17 16.5,17 z"
         inkscape:connector-curvature="0"
         style="fill:#0e232e" />
      <path
         id="path3075"
         d="M 29.5,0 C 28.121,0 27,1.121 27,2.5 27,3.879 28.121,5 29.5,5 30.879,5 32,3.879 32,2.5 32,1.121 30.879,0 29.5,0 z m 0,4 C 28.672,4 28,3.328 28,2.5 28,1.672 28.672,1 29.5,1 30.328,1 31,1.672 31,2.5 31,3.328 30.328,4 29.5,4 z"
         inkscape:connector-curvature="0"
         style="fill:#0e232e" />
      <path
         id="path3077"
         d="m 8,17 c 0,1.103 0.897,2 2,2 1.103,0 2,-0.897 2,-2 0,-1.103 -0.897,-2 -2,-2 -1.103,0 -2,0.897 -2,2 z m 2,-1 c 0.552,0 1,0.447 1,1 0,0.553 -0.448,1 -1,1 -0.552,0 -1,-0.447 -1,-1 0,-0.553 0.448,-1 1,-1 z"
         inkscape:connector-curvature="0"
         style="fill:#0e232e" />
      <circle
         id="circle3079"
         r="1"
         cy="23"
         cx="13"
         sodipodi:cx="13"
         sodipodi:cy="23"
         sodipodi:rx="1"
         sodipodi:ry="1"
         style="fill:#0e232e"
         d="m 14,23 c 0,0.552285 -0.447715,1 -1,1 -0.552285,0 -1,-0.447715 -1,-1 0,-0.552285 0.447715,-1 1,-1 0.552285,0 1,0.447715 1,1 z" />
      <circle
         id="circle3081"
         r="1"
         cy="8"
         cx="29"
         sodipodi:cx="29"
         sodipodi:cy="8"
         sodipodi:rx="1"
         sodipodi:ry="1"
         style="fill:#0e232e"
         d="m 30,8 c 0,0.5522847 -0.447715,1 -1,1 -0.552285,0 -1,-0.4477153 -1,-1 0,-0.5522847 0.447715,-1 1,-1 0.552285,0 1,0.4477153 1,1 z" />
    </g>
    <rect
       style="fill:#9eabb0;fill-opacity:1;fill-rule:nonzero;stroke:none"
       id="rect3891"
       width="72.758347"
       height="72.758347"
       x="448.84933"
       y="374.85428" />
    <rect
       y="451.33514"
       x="448.84933"
       height="72.758347"
       width="72.758347"
       id="rect3893"
       style="fill:#364e59;fill-opacity:1;fill-rule:nonzero;stroke:none" />
    <g
       style="fill:#ffffff"
       transform="matrix(0.11844383,0,0,0.11844383,452.14884,453.95781)"
       id="g3895">
      <path
         style="fill:#ffffff"
         inkscape:connector-curvature="0"
         d="m 155.1,239.6 c 17.2,56.4 61.4,115 121,115 59.6,0 103.9,-58.6 121,-115 14.7,-5.1 27,-19.8 31.8,-38.8 6.6,-26.1 -3.1,-50.3 -21.9,-57.6 1.7,-6.9 2.6,-14 2.6,-21.3 C 409.6,60 347.9,10 271.8,10 c -76.1,0 -138,50.1 -138,111.9 0,8.8 1.4,17.4 3.7,25.6 -13.6,10.3 -19.8,31.1 -14.2,53.4 4.8,18.9 17.1,33.6 31.8,38.7 z m -9.2,-71.9 c 2,-3.3 4.6,-5.5 7.9,-6.4 0.6,-0.1 1.4,-0.2 2.1,-0.2 0.6,0 1.1,0 1.7,0.1 l 9.5,0.9 1.4,-9.4 c 2.9,-19.6 9,-37.2 17.6,-52.2 16.1,18.1 48.1,30.4 85,30.4 41.7,0 77.2,-15.7 90.3,-37.7 11,16.5 18.8,36.6 22.2,59.5 l 1.4,9.4 9.5,-0.9 c 1.4,-0.1 2.7,-0.1 3.8,0.1 0.7,0.1 1.1,0.6 1.8,0.8 8.6,3.8 13,18.9 9.3,33.9 -3.8,15.3 -13.8,24.3 -21.7,25.3 l -6.6,0.9 -1.8,6.4 c -14.4,52.6 -54.4,106 -103.4,106 -49,0 -89,-53.3 -103.2,-106 l -1.8,-6.4 -6.6,-0.9 c -7.9,-1 -17.9,-10.2 -21.7,-25.3 -2.5,-10.8 -1,-21.7 3.3,-28.3 z"
         id="path3897" />
      <path
         style="fill:#ffffff"
         inkscape:connector-curvature="0"
         d="m 393.6,309.4 c -12.8,21.8 -27.6,40.3 -47.3,50.2 -40.5,20.7 -70.6,37.5 -70.6,37.5 l -0.1,-0.1 v -0.5 l -0.5,0.2 -0.5,-0.2 v 0.5 l -0.1,0.1 c 0,0 -30.1,-16.7 -70.6,-37.5 -19.6,-10.1 -34.4,-28.5 -47.3,-50.2 -59.9,24.3 -101.8,80.4 -101.8,129.2 0,51.5 0,101.4 0,101.4 h 219.7 0.8 219.9 c 0,0 0,-49.9 0,-101.4 0.2,-48.8 -41.7,-104.8 -101.6,-129.2 z"
         id="path3899" />
    </g>
    <rect
       y="374.85428"
       x="527.36078"
       height="72.758347"
       width="72.758347"
       id="rect3901"
       style="fill:#9eabb0;fill-opacity:1;fill-rule:nonzero;stroke:none" />
    <path
       sodipodi:type="arc"
       style="fill:#9eabb0;fill-opacity:1;fill-rule:nonzero;stroke:none"
       id="path3903"
       sodipodi:cx="-2299.1072"
       sodipodi:cy="-26.480734"
       sodipodi:rx="529.31995"
       sodipodi:ry="529.31995"
       d="m -1769.7872,-26.480734 a 529.31995,529.31995 0 1 1 -1058.6399,0 529.31995,529.31995 0 1 1 1058.6399,0 z"
       transform="matrix(0.09446083,0,0,0.09446083,267.17557,1128.6073)" />
    <g
       id="g3035"
       transform="matrix(0.13860121,0,0,0.13860121,11.884604,962.14276)"
       style="fill:#ffffff;fill-opacity:1">
      <path
         id="path3037"
         d="m 155.1,239.6 c 17.2,56.4 61.4,115 121,115 59.6,0 103.9,-58.6 121,-115 14.7,-5.1 27,-19.8 31.8,-38.8 6.6,-26.1 -3.1,-50.3 -21.9,-57.6 1.7,-6.9 2.6,-14 2.6,-21.3 C 409.6,60 347.9,10 271.8,10 c -76.1,0 -138,50.1 -138,111.9 0,8.8 1.4,17.4 3.7,25.6 -13.6,10.3 -19.8,31.1 -14.2,53.4 4.8,18.9 17.1,33.6 31.8,38.7 z m -9.2,-71.9 c 2,-3.3 4.6,-5.5 7.9,-6.4 0.6,-0.1 1.4,-0.2 2.1,-0.2 0.6,0 1.1,0 1.7,0.1 l 9.5,0.9 1.4,-9.4 c 2.9,-19.6 9,-37.2 17.6,-52.2 16.1,18.1 48.1,30.4 85,30.4 41.7,0 77.2,-15.7 90.3,-37.7 11,16.5 18.8,36.6 22.2,59.5 l 1.4,9.4 9.5,-0.9 c 1.4,-0.1 2.7,-0.1 3.8,0.1 0.7,0.1 1.1,0.6 1.8,0.8 8.6,3.8 13,18.9 9.3,33.9 -3.8,15.3 -13.8,24.3 -21.7,25.3 l -6.6,0.9 -1.8,6.4 c -14.4,52.6 -54.4,106 -103.4,106 -49,0 -89,-53.3 -103.2,-106 l -1.8,-6.4 -6.6,-0.9 c -7.9,-1 -17.9,-10.2 -21.7,-25.3 -2.5,-10.8 -1,-21.7 3.3,-28.3 z"
         inkscape:connector-curvature="0"
         style="fill:#ffffff;fill-opacity:1" />
      <path
         id="path3039"
         d="m 393.6,309.4 c -12.8,21.8 -27.6,40.3 -47.3,50.2 -40.5,20.7 -70.6,37.5 -70.6,37.5 l -0.1,-0.1 v -0.5 l -0.5,0.2 -0.5,-0.2 v 0.5 l -0.1,0.1 c 0,0 -30.1,-16.7 -70.6,-37.5 -19.6,-10.1 -34.4,-28.5 -47.3,-50.2 -59.9,24.3 -101.8,80.4 -101.8,129.2 0,51.5 0,101.4 0,101.4 h 219.7 0.8 219.9 c 0,0 0,-49.9 0,-101.4 0.2,-48.8 -41.7,-104.8 -101.6,-129.2 z"
         inkscape:connector-curvature="0"
         style="fill:#ffffff;fill-opacity:1" />
    </g>
    <path
       transform="matrix(0.09446083,0,0,0.09446083,367.17557,1128.6073)"
       d="m -1769.7872,-26.480734 a 529.31995,529.31995 0 1 1 -1058.6399,0 529.31995,529.31995 0 1 1 1058.6399,0 z"
       sodipodi:ry="529.31995"
       sodipodi:rx="529.31995"
       sodipodi:cy="-26.480734"
       sodipodi:cx="-2299.1072"
       id="path3951"
       style="fill:#9eabb0;fill-opacity:1;fill-rule:nonzero;stroke:none"
       sodipodi:type="arc" />
    <g
       id="g3007"
       transform="matrix(0.10984918,0,0,0.10984918,106.58006,958.39947)"
       style="fill:#ffffff;fill-opacity:1">
      <path
         id="path3009"
         d="M 714.916,396.609 H 614.384 405.819 c -8.696,0 -15.745,7.048 -15.745,15.745 v 9.688 c 0,8.696 7.05,15.747 15.745,15.747 h 208.564 100.531 52.083 v -41.18 l -52.081,0 0,0 z"
         inkscape:connector-curvature="0"
         style="fill:#ffffff;fill-opacity:1" />
      <g
         id="g3011"
         style="fill:#ffffff;fill-opacity:1">
        <path
           id="path3013"
           d="m 581.004,275.369 -199.767,-0.109 -4.729,0.016 0,-23.212 -88.887,-103.328 c -43.701,0 -79.127,35.427 -79.127,79.125 v 249.817 c 0,1.179 0.038,2.349 0.09,3.517 v 22.812 c -0.057,1.02 -0.09,2.047 -0.09,3.082 0,1.034 0.033,2.061 0.09,3.084 v 0.021 h 0.001 c 1.61,29.346 25.91,52.646 55.656,52.646 h 46.518 51.609 22.056 64.249 v 186.69 c 0,24.669 20.062,44.666 44.813,44.666 24.748,0 44.812,-19.997 44.812,-44.666 V 496.01 c 0,-24.666 -20.063,-44.666 -44.812,-44.666 -1.738,0 -8.975,0 -10.934,0 h -20.56 -77.569 -7.917 v -95.359 c 0,0 -2.418,-0.018 -2.517,-0.018 -11.369,0 -22.262,-4.784 -29.941,-13.171 l -68.194,-74.438 c -2.173,-2.371 -2.012,-6.057 0.36,-8.229 2.372,-2.174 6.057,-2.012 8.229,0.359 l 68.195,74.439 c 5.541,6.047 13.221,9.35 21.445,9.656 0.341,0.013 8.156,0.325 8.156,0.325 h 198.764 c 19.204,0 34.77,-15.566 34.77,-34.77 0,-19.201 -15.566,-34.769 -34.769,-34.769 z"
           inkscape:connector-curvature="0"
           style="fill:#ffffff;fill-opacity:1" />
        <circle
           id="circle3015"
           r="87.172997"
           cy="92.974998"
           cx="390.073"
           sodipodi:cx="390.073"
           sodipodi:cy="92.974998"
           sodipodi:rx="87.172997"
           sodipodi:ry="87.172997"
           style="fill:#ffffff;fill-opacity:1"
           d="m 477.24599,92.974998 c 0,48.144322 -39.02868,87.172992 -87.17299,87.172992 -48.14432,0 -87.173,-39.02867 -87.173,-87.172992 0,-48.144316 39.02868,-87.172996 87.173,-87.172996 48.14431,0 87.17299,39.02868 87.17299,87.172996 z" />
      </g>
      <path
         id="path3017"
         d="m 181.671,576.715 c -13.485,0 -25.188,7.604 -31.071,18.756 C 88.219,590.658 38.924,538.4 38.924,474.807 c 0,-58.205 41.292,-106.936 96.117,-118.469 v 68.699 c 0,16.573 13.434,30.011 30.008,30.011 16.573,0 30.008,-13.438 30.008,-30.011 V 250.523 c 0,-16.574 -13.436,-30.009 -30.008,-30.009 -16.574,0 -30.008,13.436 -30.008,30.009 v 73.339 C 62.508,335.811 6.999,398.942 6.999,474.807 c 0,81.079 63.402,147.617 143.231,152.666 5.752,11.541 17.667,19.475 31.439,19.475 H 435.28 v -70.232 l -253.609,-10e-4 0,0 z"
         inkscape:connector-curvature="0"
         style="fill:#ffffff;fill-opacity:1" />
      <path
         id="path3019"
         d="m 736.887,176.911 c -7.33,-2.51 -15.307,1.398 -17.815,8.727 L 659.595,359.267 H 446.771 c -7.745,0 -14.026,6.278 -14.026,14.026 0,7.747 6.281,14.026 14.026,14.026 h 222.676 c 4.771,0 8.98,-2.388 11.514,-6.028 0.874,-1.155 1.588,-2.46 2.083,-3.906 l 62.572,-182.66 c 2.504,-7.328 -1.398,-15.305 -8.729,-17.814 z"
         inkscape:connector-curvature="0"
         style="fill:#ffffff;fill-opacity:1" />
    </g>
    <path
       sodipodi:type="arc"
       style="fill:#9eabb0;fill-opacity:1;fill-rule:nonzero;stroke:none"
       id="path4001"
       sodipodi:cx="-2299.1072"
       sodipodi:cy="-26.480734"
       sodipodi:rx="529.31995"
       sodipodi:ry="529.31995"
       d="m -1769.7872,-26.480734 a 529.31995,529.31995 0 1 1 -1058.6399,0 529.31995,529.31995 0 1 1 1058.6399,0 z"
       transform="matrix(0.09446083,0,0,0.09446083,467.17557,1128.6073)" />
    <g
       id="g3886"
       transform="matrix(0.18911298,0,0,0.18911298,170.02522,927.02988)"
       style="fill:#ffffff;fill-opacity:1">
      <path
         id="path3866"
         d="m 448.3125,247.125 c -8.12335,0 -15.75491,3.15423 -21.53125,8.90625 l -17.15625,17.1875 c -5.75201,5.73986 -8.9375,13.36448 -8.9375,21.5 0,5.72769 1.58836,11.21391 4.53125,15.96875 l -165.125,66.15625 c -11.04193,4.85212 -18.93084,14.81695 -21.15625,26.625 -2.24973,11.88102 1.50306,24.04646 10.125,32.65625 l 154.6875,153 c 6.66408,6.66407 15.52342,10.43735 24.875,10.65625 0.2189,0.0122 0.71861,0 0.9375,0 2.45646,0 4.96887,-0.25141 7.4375,-0.75 12.08775,-2.5051 21.98145,-10.84848 26.46875,-22.21875 l 64.9375,-162.65625 c 4.88861,3.22259 10.64193,4.9375 16.625,4.9375 8.14768,0 15.77231,-3.1664 21.5,-8.90625 l 17.125,-17.125 c 5.80066,-5.76418 8.96875,-13.41482 8.96875,-21.5625 0,-8.14767 -3.19071,-15.80878 -8.90625,-21.5 L 469.8125,256.03125 c -5.75202,-5.73985 -13.37664,-8.90625 -21.5,-8.90625 z m -0.0313,24.3125 c 1.55657,0 3.12683,0.59559 4.3125,1.78125 l 93.9375,93.96875 c 2.40782,2.37134 2.39562,6.22241 0,8.59375 l -17.1875,17.1875 c -2.37134,2.38349 -6.22241,2.38349 -8.59375,0 L 499.25,371.5 483.28125,411.4375 C 446.6775,374.89455 409.46982,370.27873 375.90625,366.15625 365.1197,364.83073 354.65081,363.46325 344.375,361.25 l 103.28125,-41.375 -20.875,-20.84375 c -2.37134,-2.37134 -2.37134,-6.22241 0,-8.59375 l 17.1875,-17.21875 c 1.18567,-1.18566 2.75593,-1.78125 4.3125,-1.78125 z m -108.375,121.625 c 13.41327,0 24.3125,10.89923 24.3125,24.3125 0,13.41327 -10.89923,24.3125 -24.3125,24.3125 -13.41327,0 -24.34375,-10.89923 -24.34375,-24.3125 0,-13.41327 10.93048,-24.3125 24.34375,-24.3125 z m 0,12.15625 c -6.71271,0 -12.15625,5.43137 -12.15625,12.15625 0,6.72487 5.44354,12.15625 12.15625,12.15625 6.71271,0 12.15625,-5.43138 12.15625,-12.15625 0,-6.72488 -5.44354,-12.15625 -12.15625,-12.15625 z m 79.03125,0 c 16.76963,0 30.40625,13.63662 30.40625,30.40625 0,16.76962 -13.64879,30.40625 -30.40625,30.40625 -16.75746,0 -30.40625,-13.63663 -30.40625,-30.40625 0,-16.76963 13.63663,-30.40625 30.40625,-30.40625 z m 0,12.15625 c -10.08123,0 -18.25,8.18093 -18.25,18.25 0,10.06907 8.16877,18.25 18.25,18.25 10.06907,0 18.25,-8.18093 18.25,-18.25 0,-10.06907 -8.18093,-18.25 -18.25,-18.25 z m -42.5625,60.8125 c 6.71618,0 12.15625,5.44007 12.15625,12.15625 0,6.71618 -5.44007,12.15625 -12.15625,12.15625 -6.71618,0 -12.15625,-5.44007 -12.15625,-12.15625 0,-6.71618 5.44007,-12.15625 12.15625,-12.15625 z"
         style="fill:#ffffff;fill-opacity:1"
         inkscape:connector-curvature="0" />
      <path
         style="fill:#ffffff;fill-opacity:1"
         inkscape:connector-curvature="0"
         d="m 577.03261,210.64789 c -16.76962,0 -30.40178,13.63216 -30.40178,30.40178 0,16.76963 13.63216,30.40179 30.40178,30.40179 16.76963,0 30.40179,-13.63216 30.40179,-30.40179 0,-16.76962 -13.63216,-30.40178 -30.40179,-30.40178 z m 0,48.64286 c -10.06907,0 -18.24107,-8.172 -18.24107,-18.24108 0,-10.06907 8.172,-18.24107 18.24107,-18.24107 10.06907,0 18.24107,8.172 18.24107,18.24107 0,10.06908 -8.172,18.24108 -18.24107,18.24108 z"
         id="path3870" />
      <circle
         transform="matrix(12.160714,0,0,12.160714,218.29155,210.64789)"
         d="m 30,8 c 0,0.5522847 -0.447715,1 -1,1 -0.552285,0 -1,-0.4477153 -1,-1 0,-0.5522847 0.447715,-1 1,-1 0.552285,0 1,0.4477153 1,1 z"
         style="fill:#ffffff;fill-opacity:1"
         sodipodi:ry="1"
         sodipodi:rx="1"
         sodipodi:cy="8"
         sodipodi:cx="29"
         cx="29"
         cy="8"
         r="1"
         id="circle3876" />
    </g>
    <path
       transform="matrix(0.09446083,0,0,0.09446083,567.17557,1128.6073)"
       d="m -1769.7872,-26.480734 a 529.31995,529.31995 0 1 1 -1058.6399,0 529.31995,529.31995 0 1 1 1058.6399,0 z"
       sodipodi:ry="529.31995"
       sodipodi:rx="529.31995"
       sodipodi:cy="-26.480734"
       sodipodi:cx="-2299.1072"
       id="path4003"
       style="fill:#9eabb0;fill-opacity:1;fill-rule:nonzero;stroke:none"
       sodipodi:type="arc" />
    <g
       id="g3051"
       transform="matrix(2.1695564,0,0,2.1695564,315.2871,967.74149)"
       style="fill:#ffffff;fill-opacity:1">
      <path
         id="path3053"
         d="m 12.94,18.318 h -0.777 c -0.403,0 -0.73,-0.326 -0.73,-0.729 0,-0.149 0.06,-0.293 0.167,-0.397 0.452,-0.438 0.832,-1.029 1.107,-1.667 0.056,0.041 0.116,0.071 0.184,0.071 0.436,0 0.949,-0.964 0.949,-1.621 0,-0.657 -0.06,-1.19 -0.497,-1.19 -0.052,0 -0.106,0.009 -0.162,0.023 C 13.15,11.026 12.7,8.803 9.979,8.803 c -2.839,0 -3.17,2.219 -3.202,3.999 -0.04,-0.008 -0.08,-0.017 -0.117,-0.017 -0.437,0 -0.497,0.533 -0.497,1.19 0,0.657 0.512,1.621 0.949,1.621 0.054,0 0.104,-0.015 0.151,-0.042 0.274,0.626 0.649,1.206 1.094,1.641 0.107,0.104 0.167,0.246 0.167,0.396 0,0.403 -0.327,0.729 -0.73,0.729 H 7.016 c -1.662,0 -3.009,1.348 -3.009,3.01 v 0.834 c 0,0.523 0.425,0.95 0.95,0.95 h 10.041 c 0.525,0 0.95,-0.427 0.95,-0.95 V 21.33 c 10e-4,-1.664 -1.345,-3.012 -3.008,-3.012 z"
         inkscape:connector-curvature="0"
         style="fill:#ffffff;fill-opacity:1" />
      <path
         id="path3055"
         d="m 22.122,9.867 c -3.385,0 -5.937,2.598 -5.937,6.042 0,3.307 2.512,5.036 4.991,5.036 1.166,0 1.976,-0.159 2.886,-0.569 0.114,-0.052 0.174,-0.183 0.136,-0.302 l -0.273,-0.881 c -0.021,-0.07 -0.073,-0.127 -0.144,-0.156 -0.067,-0.028 -0.146,-0.025 -0.212,0.009 -0.546,0.287 -1.326,0.458 -2.087,0.458 -2.246,0 -3.642,-1.431 -3.642,-3.732 0,-2.938 2.066,-4.476 4.109,-4.476 2.057,0 3.385,1.28 3.385,3.261 0,1.599 -0.707,2.317 -1.218,2.317 -0.091,-0.003 -0.114,-0.033 -0.127,-0.047 -0.056,-0.068 -0.132,-0.287 -0.015,-0.984 l 0.482,-2.984 -0.15,-0.085 c -0.428,-0.239 -1.238,-0.412 -1.934,-0.412 -2.473,0 -3.807,1.953 -3.807,3.79 0,1.333 0.785,2.227 1.953,2.227 0.742,0 1.381,-0.298 1.869,-0.868 0.229,0.552 0.734,0.868 1.429,0.868 1.849,0 3.138,-1.59 3.138,-3.867 C 26.96,11.82 24.925,9.867 22.122,9.867 z m 0.025,5.41 c -0.127,0.815 -0.653,1.384 -1.045,1.384 -0.338,0 -0.51,-0.232 -0.51,-0.691 0,-1.052 0.69,-1.908 1.543,-1.908 0.067,0 0.133,0.004 0.188,0.011 l -0.176,1.204 z"
         inkscape:connector-curvature="0"
         style="fill:#ffffff;fill-opacity:1" />
      <path
         id="path3057"
         d="M 27.643,3.043 H 4.353 c -2.389,0 -4.325,1.936 -4.325,4.325 v 17.176 c 0,1.979 1.339,3.631 3.155,4.146 0.375,0.105 0.762,0.182 1.171,0.182 h 0.81 c 0.069,-1.076 0.955,-1.934 2.048,-1.934 1.093,0 1.979,0.857 2.048,1.934 h 2.001 1.329 2.001 c 0.069,-1.076 0.955,-1.934 2.047,-1.934 1.094,0 1.979,0.857 2.049,1.934 h 2.001 1.028 2 c 0.068,-1.076 0.955,-1.934 2.049,-1.934 1.087,0 1.969,0.85 2.046,1.916 0.704,-0.025 1.36,-0.226 1.94,-0.551 1.317,-0.74 2.221,-2.136 2.221,-3.757 V 7.368 C 31.968,4.98 30.03,3.043 27.643,3.043 z m 2.282,21.502 c 0,0.796 -0.41,1.496 -1.029,1.905 -0.744,-0.915 -1.864,-1.513 -3.135,-1.513 -1.438,0 -2.694,0.758 -3.414,1.891 h -2.295 c -0.721,-1.133 -1.977,-1.891 -3.414,-1.891 -1.439,0 -2.695,0.758 -3.417,1.891 H 10.626 C 9.905,25.695 8.65,24.937 7.211,24.937 5.799,24.937 4.559,25.666 3.832,26.76 2.825,26.525 2.07,25.621 2.07,24.543 V 7.368 c 0,-1.259 1.024,-2.283 2.283,-2.283 h 23.29 c 1.259,0 2.281,1.024 2.281,2.283 v 17.177 l 0.001,0 z"
         inkscape:connector-curvature="0"
         style="fill:#ffffff;fill-opacity:1" />
    </g>
  </g>
</svg>
