<?xml version="1.0" encoding="UTF-8" standalone="no"?>
<!-- Created with Inkscape (http://www.inkscape.org/) -->

<svg
   xmlns:dc="http://purl.org/dc/elements/1.1/"
   xmlns:cc="http://creativecommons.org/ns#"
   xmlns:rdf="http://www.w3.org/1999/02/22-rdf-syntax-ns#"
   xmlns:svg="http://www.w3.org/2000/svg"
   xmlns="http://www.w3.org/2000/svg"
   xmlns:xlink="http://www.w3.org/1999/xlink"
   xmlns:sodipodi="http://sodipodi.sourceforge.net/DTD/sodipodi-0.dtd"
   xmlns:inkscape="http://www.inkscape.org/namespaces/inkscape"
   width="450"
   height="400"
   id="svg2"
   version="1.1"
   inkscape:version="0.48.5 r10040"
   sodipodi:docname="frog.svg"
   inkscape:export-filename="/home/abie/Projects/hafs.in/img/frog.png"
   inkscape:export-xdpi="72"
   inkscape:export-ydpi="72">
  <defs
     id="defs4">
    <linearGradient
       inkscape:collect="always"
       id="linearGradient3871">
      <stop
         style="stop-color:#ffffff;stop-opacity:1"
         offset="0"
         id="stop3873" />
      <stop
         style="stop-color:#f1f1f1;stop-opacity:1"
         offset="1"
         id="stop3875" />
    </linearGradient>
    <radialGradient
       inkscape:collect="always"
       xlink:href="#linearGradient3871"
       id="radialGradient3891"
       gradientUnits="userSpaceOnUse"
       gradientTransform="matrix(0.12465961,0,0,0.12465961,-356.38858,588.54577)"
       cx="-215"
       cy="864.50507"
       fx="-215"
       fy="864.50507"
       r="192.14285" />
    <filter
       inkscape:collect="always"
       id="filter4083"
       color-interpolation-filters="sRGB">
      <feGaussianBlur
         inkscape:collect="always"
         stdDeviation="4.9150501"
         id="feGaussianBlur4085" />
    </filter>
  </defs>
  <sodipodi:namedview
     id="base"
     pagecolor="#ffffff"
     bordercolor="#666666"
     borderopacity="1.0"
     inkscape:pageopacity="0.0"
     inkscape:pageshadow="2"
     inkscape:zoom="1.4925"
     inkscape:cx="-302.62267"
     inkscape:cy="99.242324"
     inkscape:document-units="px"
     inkscape:current-layer="layer1"
     showgrid="false"
     inkscape:window-width="1366"
     inkscape:window-height="742"
     inkscape:window-x="0"
     inkscape:window-y="26"
     inkscape:window-maximized="1" />
  <metadata
     id="metadata7">
    <rdf:RDF>
      <cc:Work
         rdf:about="">
        <dc:format>image/svg+xml</dc:format>
        <dc:type
           rdf:resource="http://purl.org/dc/dcmitype/StillImage" />
        <dc:title></dc:title>
      </cc:Work>
    </rdf:RDF>
  </metadata>
  <g
     inkscape:label="Layer 1"
     inkscape:groupmode="layer"
     id="layer1"
     transform="translate(0,-652.36218)">
    <rect
       style="fill:#005c94;fill-opacity:1;fill-rule:nonzero;stroke:none"
       id="rect3091"
       width="320.26801"
       height="518.20453"
       x="-624.45557"
       y="722.71399"
       ry="1.2626907" />
    <path
       sodipodi:type="arc"
       style="fill:#0e232e;stroke:none"
       id="path2985"
       sodipodi:cx="406.08133"
       sodipodi:cy="471.52448"
       sodipodi:rx="224.25386"
       sodipodi:ry="112.12693"
       d="m 630.33519,471.52448 c 0,61.92599 -100.40187,112.12693 -224.25386,112.12693 -123.85199,0 -224.25386,-50.20094 -224.25386,-112.12693 0,-61.926 100.40187,-112.12694 224.25386,-112.12694 123.85199,0 224.25386,50.20094 224.25386,112.12694 z"
       transform="matrix(0.83261063,0,0,1,-108.96506,26.263966)" />
    <path
       transform="matrix(0.75462952,0,0,0.90090089,-77.803464,66.930704)"
       d="m 630.33519,471.52448 c 0,61.92599 -100.40187,112.12693 -224.25386,112.12693 -123.85199,0 -224.25386,-50.20094 -224.25386,-112.12693 0,-61.926 100.40187,-112.12694 224.25386,-112.12694 123.85199,0 224.25386,50.20094 224.25386,112.12694 z"
       sodipodi:ry="112.12693"
       sodipodi:rx="224.25386"
       sodipodi:cy="471.52448"
       sodipodi:cx="406.08133"
       id="path3757"
       style="fill:#ffffff;stroke:none"
       sodipodi:type="arc" />
    <path
       sodipodi:type="arc"
       style="fill:#0e232e;stroke:none"
       id="path3755"
       sodipodi:cx="89.398499"
       sodipodi:cy="322.52698"
       sodipodi:rx="35.860416"
       sodipodi:ry="35.860416"
       d="m 125.25891,322.52698 c 0,19.80516 -16.05525,35.86041 -35.860411,35.86041 -19.805162,0 -35.860417,-16.05525 -35.860417,-35.86041 0,-19.80516 16.055255,-35.86042 35.860417,-35.86042 19.805161,0 35.860411,16.05526 35.860411,35.86042 z"
       transform="matrix(1.7320393,-0.22411602,0.24901781,1.9244882,-71.430754,-191.96216)" />
    <path
       transform="matrix(1.5090094,-0.19525722,0.21695248,1.6766772,-39.129974,-112.73992)"
       d="m 125.25891,322.52698 c 0,19.80516 -16.05525,35.86041 -35.860411,35.86041 -19.805162,0 -35.860417,-16.05525 -35.860417,-35.86041 0,-19.80516 16.055255,-35.86042 35.860417,-35.86042 19.805161,0 35.860411,16.05526 35.860411,35.86042 z"
       sodipodi:ry="35.860416"
       sodipodi:rx="35.860416"
       sodipodi:cy="322.52698"
       sodipodi:cx="89.398499"
       id="path3761"
       style="fill:#ffffff;stroke:none"
       sodipodi:type="arc" />
    <path
       sodipodi:type="arc"
       style="fill:#0e232e;stroke:none"
       id="path3763"
       sodipodi:cx="89.398499"
       sodipodi:cy="322.52698"
       sodipodi:rx="35.860416"
       sodipodi:ry="35.860416"
       d="m 125.25891,322.52698 c 0,19.80516 -16.05525,35.86041 -35.860411,35.86041 -19.805162,0 -35.860417,-16.05525 -35.860417,-35.86041 0,-19.80516 16.055255,-35.86042 35.860417,-35.86042 19.805161,0 35.860411,16.05526 35.860411,35.86042 z"
       transform="matrix(0.81204094,-0.10507347,0.11674831,0.90226774,55.537116,135.81501)" />
    <path
       transform="matrix(-1.7320393,-0.22411602,-0.24901781,1.9244882,517.07045,-190.952)"
       d="m 125.25891,322.52698 c 0,19.80516 -16.05525,35.86041 -35.860411,35.86041 -19.805162,0 -35.860417,-16.05525 -35.860417,-35.86041 0,-19.80516 16.055255,-35.86042 35.860417,-35.86042 19.805161,0 35.860411,16.05526 35.860411,35.86042 z"
       sodipodi:ry="35.860416"
       sodipodi:rx="35.860416"
       sodipodi:cy="322.52698"
       sodipodi:cx="89.398499"
       id="path3765"
       style="fill:#0e232e;stroke:none"
       sodipodi:type="arc" />
    <path
       sodipodi:type="arc"
       style="fill:#ffffff;stroke:none"
       id="path3767"
       sodipodi:cx="89.398499"
       sodipodi:cy="322.52698"
       sodipodi:rx="35.860416"
       sodipodi:ry="35.860416"
       d="m 125.25891,322.52698 c 0,19.80516 -16.05525,35.86041 -35.860411,35.86041 -19.805162,0 -35.860417,-16.05525 -35.860417,-35.86041 0,-19.80516 16.055255,-35.86042 35.860417,-35.86042 19.805161,0 35.860411,16.05526 35.860411,35.86042 z"
       transform="matrix(-1.5090094,-0.19525722,-0.21695248,1.6766772,484.76966,-111.72976)" />
    <path
       transform="matrix(-0.81204094,-0.10507347,-0.11674831,0.90226774,388.10257,136.82517)"
       d="m 125.25891,322.52698 c 0,19.80516 -16.05525,35.86041 -35.860411,35.86041 -19.805162,0 -35.860417,-16.05525 -35.860417,-35.86041 0,-19.80516 16.055255,-35.86042 35.860417,-35.86042 19.805161,0 35.860411,16.05526 35.860411,35.86042 z"
       sodipodi:ry="35.860416"
       sodipodi:rx="35.860416"
       sodipodi:cy="322.52698"
       sodipodi:cx="89.398499"
       id="path3769"
       style="fill:#0e232e;stroke:none"
       sodipodi:type="arc" />
    <path
       style="fill:#0e232e;fill-opacity:1;fill-rule:nonzero;stroke:none"
       inkscape:transform-center-y="5.5552235"
       d="m 168.55428,517.83354 c 37.80515,17.35337 76.68974,14.27553 113.92455,-2.94809 -37.23028,36.78819 -78.96587,34.18621 -113.92455,2.94809 z"
       id="path3775"
       inkscape:connector-curvature="0"
       sodipodi:nodetypes="ccc" />
    <path
       style="fill:#0e232e;fill-opacity:1;fill-rule:nonzero;stroke:none"
       inkscape:transform-center-x="-15.174774"
       d="M 206.1495,345.50757 C 173.94269,330.71519 146.04874,324.4425 109.28616,327.62271 l 0.927,-7.53718 0.927,-7.53717 c 52.62975,2.4036 70.52212,14.05654 95.00934,32.95921 z"
       id="path3781"
       inkscape:connector-curvature="0"
       sodipodi:nodetypes="ccccc"
       inkscape:transform-center-y="3.323168" />
    <path
       inkscape:transform-center-y="3.323168"
       sodipodi:nodetypes="ccccc"
       inkscape:connector-curvature="0"
       id="path3786"
       d="m 227.47401,349.54818 c 32.20681,-14.79238 60.10076,-21.06507 96.86334,-17.88486 l -0.927,-7.53718 -0.927,-7.53717 c -52.62975,2.4036 -70.52212,14.05654 -95.00934,32.95921 z"
       inkscape:transform-center-x="15.174774"
       style="fill:#0e232e;fill-opacity:1;fill-rule:nonzero;stroke:none" />
    <g
       id="g3879"
       transform="matrix(3.7072386,0,0,3.7072386,1263.9696,-1838.3906)"
       inkscape:export-filename="/home/abie/Projects/hafs.in/apple-touch-icon-precomposed.png"
       inkscape:export-xdpi="77.029999"
       inkscape:export-ydpi="77.029999">
      <rect
         y="672.36218"
         x="-407.14285"
         height="47.904907"
         width="47.904907"
         id="rect3869"
         style="fill:url(#radialGradient3891);fill-opacity:1;fill-rule:nonzero;stroke:none" />
      <g
         id="g3851"
         transform="matrix(0.12535388,0,0,0.13802622,-438.12674,581.49013)"
         style="fill:#911e07;fill-opacity:1">
        <path
           id="path3853"
           d="m 557.0625,775.96875 0,8.8125 c 30.81861,18.29971 49.90625,43.62888 49.90625,71.625 0,55.78918 -75.75638,101 -169.21875,101 -93.46237,0 -169.25,-45.21082 -169.25,-101 0,-28.22134 19.39186,-53.73005 50.65625,-72.0625 l 0,-8.25 c -41.31588,20.57505 -67.625,51.63024 -67.625,86.375 0,61.92599 83.59827,112.125 186.71875,112.125 103.12048,0 186.71875,-50.19901 186.71875,-112.125 0,-34.82272 -26.43026,-65.92599 -67.90625,-86.5 z"
           style="fill:#911e07;fill-opacity:1;stroke:none"
           inkscape:connector-curvature="0" />
        <path
           style="fill:#911e07;fill-opacity:1;fill-rule:nonzero;stroke:none"
           inkscape:transform-center-y="5.5552235"
           d="m 381.28773,886.4986 c 37.80515,17.35337 76.68974,14.27553 113.92454,-2.94809 -37.23028,36.78819 -78.96587,34.18621 -113.92454,2.94809 z"
           id="path3855"
           inkscape:connector-curvature="0"
           sodipodi:nodetypes="ccc" />
        <path
           id="path3857"
           d="m 375.60938,713.875 c -2.1185,0.0346 -4.23105,0.19133 -6.375,0.46875 -34.30332,4.43865 -58.11935,38.9477 -53.1875,77.0625 4.93184,38.1148 36.72793,65.4074 71.03125,60.96875 34.30331,-4.43865 58.11934,-38.91645 53.1875,-77.03125 -4.62361,-35.73262 -32.87878,-61.98725 -64.65625,-61.46875 z m 2.375,10.84375 c 27.68558,-0.45173 52.28426,22.39982 56.3125,53.53125 4.29678,33.20686 -16.45759,63.2579 -46.34375,67.125 -29.88617,3.8671 -57.60947,-19.91814 -61.90625,-53.125 -4.29679,-33.20686 16.45758,-63.2579 46.34375,-67.125 1.86788,-0.24169 3.74804,-0.37613 5.59375,-0.40625 z"
           style="fill:#911e07;fill-opacity:1;stroke:none"
           inkscape:connector-curvature="0" />
        <path
           id="path3859"
           d="m 125.25891,322.52698 c 0,19.80516 -16.05525,35.86041 -35.860411,35.86041 -19.805162,0 -35.860417,-16.05525 -35.860417,-35.86041 0,-19.80516 16.055255,-35.86042 35.860417,-35.86042 19.805161,0 35.860411,16.05526 35.860411,35.86042 z"
           style="fill:#911e07;fill-opacity:1;stroke:none"
           transform="matrix(0.81204094,-0.10507347,0.11674831,0.90226774,269.96681,510.48007)"
           inkscape:connector-curvature="0" />
        <path
           inkscape:connector-curvature="0"
           id="path3861"
           d="m 500.89063,714.90625 c -31.77749,-0.5185 -60.03265,25.70488 -64.65625,61.4375 -4.93185,38.1148 18.88418,72.5926 53.1875,77.03125 34.30331,4.43865 66.09941,-22.85395 71.03124,-60.96875 4.93184,-38.1148 -18.88418,-72.5926 -53.18749,-77.03125 -2.14396,-0.27742 -4.25651,-0.43418 -6.375,-0.46875 z m -2.375,10.8125 c 1.8457,0.0301 3.72586,0.16456 5.59375,0.40625 29.88616,3.8671 50.60928,33.91814 46.31249,67.125 -4.29678,33.20686 -31.98883,56.9921 -61.87499,53.125 -29.88617,-3.8671 -50.64054,-33.91814 -46.34375,-67.125 4.02823,-31.13143 28.62691,-53.98298 56.3125,-53.53125 z"
           style="fill:#911e07;fill-opacity:1;stroke:none" />
        <path
           id="path3863"
           d="m 125.25891,322.52698 c 0,19.80516 -16.05525,35.86041 -35.860411,35.86041 -19.805162,0 -35.860417,-16.05525 -35.860417,-35.86041 0,-19.80516 16.055255,-35.86042 35.860417,-35.86042 19.805161,0 35.860411,16.05526 35.860411,35.86042 z"
           style="fill:#911e07;fill-opacity:1;stroke:none"
           transform="matrix(-0.81204094,-0.10507347,-0.11674831,0.90226774,602.53227,511.49023)"
           inkscape:connector-curvature="0" />
        <path
           style="fill:#911e07;fill-opacity:1;fill-rule:nonzero;stroke:none"
           inkscape:transform-center-x="-15.174774"
           d="m 420.5792,722.17263 c -32.20681,-14.79238 -60.10076,-21.06507 -96.86334,-17.88486 l 0.927,-7.53718 0.927,-7.53717 c 52.62975,2.4036 70.52212,14.05654 95.00934,32.95921 z"
           id="path3865"
           inkscape:connector-curvature="0"
           sodipodi:nodetypes="ccccc"
           inkscape:transform-center-y="3.323168" />
        <path
           inkscape:transform-center-y="3.323168"
           sodipodi:nodetypes="ccccc"
           inkscape:connector-curvature="0"
           id="path3867"
           d="m 441.90371,726.21324 c 32.20681,-14.79238 60.10075,-21.06507 96.86334,-17.88486 l -0.927,-7.53718 -0.927,-7.53717 c -52.62975,2.4036 -70.52212,14.05654 -95.00934,32.95921 z"
           inkscape:transform-center-x="15.174774"
           style="fill:#911e07;fill-opacity:1;fill-rule:nonzero;stroke:none" />
      </g>
    </g>
    <g
       id="g4087"
       transform="matrix(0.93864955,-0.16523576,0.16523576,0.93864955,-154.84546,96.341467)">
      <g
         id="g3990"
         transform="matrix(1.1556539,0,0,1.2724818,-258.51341,-206.15868)"
         style="fill:#ffffff;fill-opacity:0.60784314;filter:url(#filter4083)">
        <path
           id="path3992"
           d="m 557.0625,775.96875 0,8.8125 c 30.81861,18.29971 49.90625,43.62888 49.90625,71.625 0,55.78918 -75.75638,101 -169.21875,101 -93.46237,0 -169.25,-45.21082 -169.25,-101 0,-28.22134 19.39186,-53.73005 50.65625,-72.0625 l 0,-8.25 c -41.31588,20.57505 -67.625,51.63024 -67.625,86.375 0,61.92599 83.59827,112.125 186.71875,112.125 103.12048,0 186.71875,-50.19901 186.71875,-112.125 0,-34.82272 -26.43026,-65.92599 -67.90625,-86.5 z"
           style="fill:#ffffff;fill-opacity:0.60784314;stroke:none"
           inkscape:connector-curvature="0" />
        <path
           style="fill:#ffffff;fill-opacity:0.60784314;fill-rule:nonzero;stroke:none"
           inkscape:transform-center-y="5.5552235"
           d="m 381.28773,886.4986 c 37.80515,17.35337 76.68974,14.27553 113.92454,-2.94809 -37.23028,36.78819 -78.96587,34.18621 -113.92454,2.94809 z"
           id="path3994"
           inkscape:connector-curvature="0"
           sodipodi:nodetypes="ccc" />
        <path
           id="path3996"
           d="m 375.60938,713.875 c -2.1185,0.0346 -4.23105,0.19133 -6.375,0.46875 -34.30332,4.43865 -58.11935,38.9477 -53.1875,77.0625 4.93184,38.1148 36.72793,65.4074 71.03125,60.96875 34.30331,-4.43865 58.11934,-38.91645 53.1875,-77.03125 -4.62361,-35.73262 -32.87878,-61.98725 -64.65625,-61.46875 z m 2.375,10.84375 c 27.68558,-0.45173 52.28426,22.39982 56.3125,53.53125 4.29678,33.20686 -16.45759,63.2579 -46.34375,67.125 -29.88617,3.8671 -57.60947,-19.91814 -61.90625,-53.125 -4.29679,-33.20686 16.45758,-63.2579 46.34375,-67.125 1.86788,-0.24169 3.74804,-0.37613 5.59375,-0.40625 z"
           style="fill:#ffffff;fill-opacity:0.60784314;stroke:none"
           inkscape:connector-curvature="0" />
        <path
           id="path3998"
           d="m 125.25891,322.52698 c 0,19.80516 -16.05525,35.86041 -35.860411,35.86041 -19.805162,0 -35.860417,-16.05525 -35.860417,-35.86041 0,-19.80516 16.055255,-35.86042 35.860417,-35.86042 19.805161,0 35.860411,16.05526 35.860411,35.86042 z"
           style="fill:#ffffff;fill-opacity:0.60784314;stroke:none"
           transform="matrix(0.81204094,-0.10507347,0.11674831,0.90226774,269.96681,510.48007)"
           inkscape:connector-curvature="0" />
        <path
           inkscape:connector-curvature="0"
           id="path4000"
           d="m 500.89063,714.90625 c -31.77749,-0.5185 -60.03265,25.70488 -64.65625,61.4375 -4.93185,38.1148 18.88418,72.5926 53.1875,77.03125 34.30331,4.43865 66.09941,-22.85395 71.03124,-60.96875 4.93184,-38.1148 -18.88418,-72.5926 -53.18749,-77.03125 -2.14396,-0.27742 -4.25651,-0.43418 -6.375,-0.46875 z m -2.375,10.8125 c 1.8457,0.0301 3.72586,0.16456 5.59375,0.40625 29.88616,3.8671 50.60928,33.91814 46.31249,67.125 -4.29678,33.20686 -31.98883,56.9921 -61.87499,53.125 -29.88617,-3.8671 -50.64054,-33.91814 -46.34375,-67.125 4.02823,-31.13143 28.62691,-53.98298 56.3125,-53.53125 z"
           style="fill:#ffffff;fill-opacity:0.60784314;stroke:none" />
        <path
           id="path4002"
           d="m 125.25891,322.52698 c 0,19.80516 -16.05525,35.86041 -35.860411,35.86041 -19.805162,0 -35.860417,-16.05525 -35.860417,-35.86041 0,-19.80516 16.055255,-35.86042 35.860417,-35.86042 19.805161,0 35.860411,16.05526 35.860411,35.86042 z"
           style="fill:#ffffff;fill-opacity:0.60784314;stroke:none"
           transform="matrix(-0.81204094,-0.10507347,-0.11674831,0.90226774,602.53227,511.49023)"
           inkscape:connector-curvature="0" />
        <path
           style="fill:#ffffff;fill-opacity:0.60784314;fill-rule:nonzero;stroke:none"
           inkscape:transform-center-x="-15.174774"
           d="m 420.5792,722.17263 c -32.20681,-14.79238 -60.10076,-21.06507 -96.86334,-17.88486 l 0.927,-7.53718 0.927,-7.53717 c 52.62975,2.4036 70.52212,14.05654 95.00934,32.95921 z"
           id="path4004"
           inkscape:connector-curvature="0"
           sodipodi:nodetypes="ccccc"
           inkscape:transform-center-y="3.323168" />
        <path
           inkscape:transform-center-y="3.323168"
           sodipodi:nodetypes="ccccc"
           inkscape:connector-curvature="0"
           id="path4006"
           d="m 441.90371,726.21324 c 32.20681,-14.79238 60.10075,-21.06507 96.86334,-17.88486 l -0.927,-7.53718 -0.927,-7.53717 c -52.62975,2.4036 -70.52212,14.05654 -95.00934,32.95921 z"
           inkscape:transform-center-x="15.174774"
           style="fill:#ffffff;fill-opacity:0.60784314;fill-rule:nonzero;stroke:none" />
      </g>
      <g
         style="fill:#071117;fill-opacity:0.92441861"
         transform="matrix(1.1556539,0,0,1.2724818,-258.51341,-206.15868)"
         id="g3841">
        <path
           inkscape:connector-curvature="0"
           style="fill:#071117;fill-opacity:0.92441861;stroke:none"
           d="m 557.0625,775.96875 0,8.8125 c 30.81861,18.29971 49.90625,43.62888 49.90625,71.625 0,55.78918 -75.75638,101 -169.21875,101 -93.46237,0 -169.25,-45.21082 -169.25,-101 0,-28.22134 19.39186,-53.73005 50.65625,-72.0625 l 0,-8.25 c -41.31588,20.57505 -67.625,51.63024 -67.625,86.375 0,61.92599 83.59827,112.125 186.71875,112.125 103.12048,0 186.71875,-50.19901 186.71875,-112.125 0,-34.82272 -26.43026,-65.92599 -67.90625,-86.5 z"
           id="path3788" />
        <path
           sodipodi:nodetypes="ccc"
           inkscape:connector-curvature="0"
           id="path3804"
           d="m 381.28773,886.4986 c 37.80515,17.35337 76.68974,14.27553 113.92454,-2.94809 -37.23028,36.78819 -78.96587,34.18621 -113.92454,2.94809 z"
           inkscape:transform-center-y="5.5552235"
           style="fill:#071117;fill-opacity:0.92441861;fill-rule:nonzero;stroke:none" />
        <path
           inkscape:connector-curvature="0"
           style="fill:#071117;fill-opacity:0.92441861;stroke:none"
           d="m 375.60938,713.875 c -2.1185,0.0346 -4.23105,0.19133 -6.375,0.46875 -34.30332,4.43865 -58.11935,38.9477 -53.1875,77.0625 4.93184,38.1148 36.72793,65.4074 71.03125,60.96875 34.30331,-4.43865 58.11934,-38.91645 53.1875,-77.03125 -4.62361,-35.73262 -32.87878,-61.98725 -64.65625,-61.46875 z m 2.375,10.84375 c 27.68558,-0.45173 52.28426,22.39982 56.3125,53.53125 4.29678,33.20686 -16.45759,63.2579 -46.34375,67.125 -29.88617,3.8671 -57.60947,-19.91814 -61.90625,-53.125 -4.29679,-33.20686 16.45758,-63.2579 46.34375,-67.125 1.86788,-0.24169 3.74804,-0.37613 5.59375,-0.40625 z"
           id="path3792" />
        <path
           inkscape:connector-curvature="0"
           transform="matrix(0.81204094,-0.10507347,0.11674831,0.90226774,269.96681,510.48007)"
           style="fill:#071117;fill-opacity:0.92441861;stroke:none"
           d="m 125.25891,322.52698 c 0,19.80516 -16.05525,35.86041 -35.860411,35.86041 -19.805162,0 -35.860417,-16.05525 -35.860417,-35.86041 0,-19.80516 16.055255,-35.86042 35.860417,-35.86042 19.805161,0 35.860411,16.05526 35.860411,35.86042 z"
           id="path3796" />
        <path
           style="fill:#071117;fill-opacity:0.92441861;stroke:none"
           d="m 500.89063,714.90625 c -31.77749,-0.5185 -60.03265,25.70488 -64.65625,61.4375 -4.93185,38.1148 18.88418,72.5926 53.1875,77.03125 34.30331,4.43865 66.09941,-22.85395 71.03124,-60.96875 4.93184,-38.1148 -18.88418,-72.5926 -53.18749,-77.03125 -2.14396,-0.27742 -4.25651,-0.43418 -6.375,-0.46875 z m -2.375,10.8125 c 1.8457,0.0301 3.72586,0.16456 5.59375,0.40625 29.88616,3.8671 50.60928,33.91814 46.31249,67.125 -4.29678,33.20686 -31.98883,56.9921 -61.87499,53.125 -29.88617,-3.8671 -50.64054,-33.91814 -46.34375,-67.125 4.02823,-31.13143 28.62691,-53.98298 56.3125,-53.53125 z"
           id="path3798"
           inkscape:connector-curvature="0" />
        <path
           inkscape:connector-curvature="0"
           transform="matrix(-0.81204094,-0.10507347,-0.11674831,0.90226774,602.53227,511.49023)"
           style="fill:#071117;fill-opacity:0.92441861;stroke:none"
           d="m 125.25891,322.52698 c 0,19.80516 -16.05525,35.86041 -35.860411,35.86041 -19.805162,0 -35.860417,-16.05525 -35.860417,-35.86041 0,-19.80516 16.055255,-35.86042 35.860417,-35.86042 19.805161,0 35.860411,16.05526 35.860411,35.86042 z"
           id="path3802" />
        <path
           inkscape:transform-center-y="3.323168"
           sodipodi:nodetypes="ccccc"
           inkscape:connector-curvature="0"
           id="path3806"
           d="m 420.5792,722.17263 c -32.20681,-14.79238 -60.10076,-21.06507 -96.86334,-17.88486 l 0.927,-7.53718 0.927,-7.53717 c 52.62975,2.4036 70.52212,14.05654 95.00934,32.95921 z"
           inkscape:transform-center-x="-15.174774"
           style="fill:#071117;fill-opacity:0.92441861;fill-rule:nonzero;stroke:none" />
        <path
           style="fill:#071117;fill-opacity:0.92441861;fill-rule:nonzero;stroke:none"
           inkscape:transform-center-x="15.174774"
           d="m 441.90371,726.21324 c 32.20681,-14.79238 60.10075,-21.06507 96.86334,-17.88486 l -0.927,-7.53718 -0.927,-7.53717 c -52.62975,2.4036 -70.52212,14.05654 -95.00934,32.95921 z"
           id="path3808"
           inkscape:connector-curvature="0"
           sodipodi:nodetypes="ccccc"
           inkscape:transform-center-y="3.323168" />
      </g>
      <path
         inkscape:connector-curvature="0"
         id="path4060"
         d="m 179.12192,716.59721 c -13.63662,0.015 -27.19304,5.59012 -38.53603,16.75331 -32.40364,31.89004 -28.89817,94.23329 6.89843,123.11817 6.32858,5.10663 15.61013,9.8841 22.36041,11.52003 6.4964,1.57445 18.7563,1.58935 24.8751,0.034 16.20778,-4.11996 30.5387,-16.17474 39.18169,-32.96291 17.30768,-33.61848 10.64311,-76.75399 -15.69987,-101.77723 -11.72512,-11.13773 -25.44312,-16.7004 -39.07973,-16.68535 z m 137.79855,1.5292 c -0.9581,0.004 -1.94211,0.0187 -2.92248,0.068 -14.80626,0.74356 -25.17578,5.65205 -37.48257,17.77278 -8.37359,8.247 -13.62329,16.29695 -17.90871,27.3898 -13.93746,36.0772 -3.40154,78.04611 24.53528,97.66537 6.13742,4.31014 12.07956,6.88147 20.21951,8.76745 3.14174,0.72785 7.82689,1.00386 12.5395,0.7816 26.77228,-1.26268 50.17547,-22.96743 58.55165,-54.33783 8.17852,-30.63019 0.41071,-62.63273 -19.94766,-82.23736 -11.29149,-10.87344 -23.21285,-15.92952 -37.58452,-15.86978 z m -139.2598,42.13816 c 0.60289,-0.0112 1.25423,-0.003 1.97098,0 9.00956,0.0382 14.48052,2.2603 21.54483,8.73347 21.21501,19.43969 17.45204,59.04218 -6.79647,71.53291 -3.55123,1.82928 -5.84497,2.33725 -10.87437,2.5147 -6.94651,0.24509 -8.06751,0.0961 -13.04923,-1.937 -9.06989,-3.70152 -17.31103,-13.13113 -21.37492,-24.46731 -1.59674,-4.4541 -1.93575,-7.17387 -1.97098,-15.0542 -0.0262,-5.86487 0.40273,-11.24689 1.12142,-13.79684 3.17305,-11.25825 10.52104,-20.62385 19.70978,-25.11298 3.75781,-1.83588 5.49878,-2.33419 9.71896,-2.41275 z m 133.61873,1.63115 c 7.07887,0 8.47019,0.24792 12.67543,2.37877 15.62877,7.9193 24.11064,29.26211 19.4719,49.00259 -3.17101,13.49445 -12.29059,25.19432 -22.73421,29.19087 -9.85457,3.77112 -18.89949,2.89636 -27.25387,-2.65063 -20.95805,-13.91536 -23.2753,-49.39088 -4.48568,-68.4745 7.19425,-7.30682 12.2409,-9.4471 22.32643,-9.4471 z m -205.66138,33.88044 -3.53416,2.54868 c -24.807662,17.90389 -42.011892,42.07823 -47.915162,67.28511 -2.416421,10.3181 -2.046875,28.26005 0.815577,39.21567 2.68857,10.2901 9.495745,24.25968 16.481455,33.84645 6.294152,8.63771 19.80826,22.18146 28.81706,28.85104 31.28903,23.16456 70.84644,37.51809 117.23922,42.57989 21.81436,2.3802 55.58974,1.2691 78.63523,-2.5826 63.10512,-10.54726 116.09046,-43.20852 136.50723,-84.1404 15.48678,-31.04817 12.08187,-65.79793 -9.27719,-94.81085 -6.09663,-8.28132 -19.26079,-21.61897 -27.25387,-27.59369 l -5.84497,-4.34974 -1.08744,7.714 c -5.16864,37.1656 -28.70328,66.89828 -59.09536,74.59132 -6.82152,1.72671 -21.18817,1.94841 -27.55971,0.44178 -10.87668,-2.57193 -22.33118,-8.79021 -30.82202,-16.71934 -8.89613,-8.30761 -18.15313,-23.25564 -21.91864,-35.37566 -0.8212,-2.64321 -1.71017,-4.7926 -1.97098,-4.79151 -0.26082,10e-4 -1.52588,2.92925 -2.78655,6.49063 -6.74023,19.04087 -20.63272,35.4788 -36.93885,43.66736 -19.32558,9.70488 -41.38982,8.7211 -60.69254,-2.6846 -16.18739,-9.5649 -31.17439,-29.91763 -37.10876,-50.39588 -1.8301,-6.31531 -2.49667,-9.57822 -4.28178,-21.10306 l -0.40779,-2.6846 z m 207.83625,122.4725 c 0.14209,-0.0169 0.23758,-0.002 0.27186,0.034 0.86879,0.91166 -14.26571,14.48153 -21.74872,19.50589 -11.53566,7.74543 -21.0544,11.73331 -32.92893,13.86481 -23.6837,4.2513 -47.38189,-3.60623 -70.58141,-23.41386 -3.69874,-3.15796 -6.55975,-5.91177 -6.3547,-6.11683 0.20505,-0.20506 4.01003,1.18296 8.46161,3.0924 36.34981,15.59165 75.65318,14.33797 114.45266,-3.6701 3.94628,-1.8316 7.43302,-3.17769 8.42763,-3.29629 z"
         style="fill:#ffffff;fill-opacity:1;fill-rule:nonzero;stroke:none" />
    </g>
    <path
       style="fill:#ffffff;fill-opacity:1;fill-rule:nonzero;stroke:none"
       d="m -146.74272,1093.2406 c -54.76592,0 -99.15625,44.3903 -99.15625,99.1562 0,54.7659 44.39033,99.1562 99.15625,99.1562 54.76592,0 99.15625,-44.3903 99.15625,-99.1562 0,-54.7659 -44.39033,-99.1562 -99.15625,-99.1562 z m 32.8125,16 1.15625,3.8437 1.125,3.8438 c -17.68724,1.4053 -30.30441,7.0163 -44.1875,17.4062 9.8533,-11.8884 17.22303,-19.4575 41.90625,-25.0937 z m -12,14 c 14.51244,-0.4752 27.37317,11.6079 31.1875,28.1562 20.42988,7.4483 34.90901,21.1287 38,38.6875 5.67975,32.2648 -29.26731,65.379 -78.0625,73.9687 -48.79519,8.5897 -92.94525,-10.6102 -98.625,-42.875 -3.08987,-17.5525 5.88464,-35.3372 22.53125,-49.3124 -2.3069,-17.0635 5.64284,-33.0985 19.59375,-37.6563 0.98905,-0.3231 1.96948,-0.5868 2.96875,-0.7812 13.61111,-2.649 27.8381,6.4345 34.4375,21.7812 1.15578,-16.4177 11.3919,-29.5531 24.9375,-31.6875 1.00562,-0.1584 1.99131,-0.2471 3.03125,-0.2812 z m -72.78125,0.5 c 14.31779,0.2198 22.25959,4.3017 32.40625,10.25 -16.59656,-5.0244 -30.39614,-5.9692 -47.5,-1.25 l -0.21875,-3.9688 -0.25,-4.0312 c 4.71078,-0.5872 8.85136,-0.8944 12.59375,-0.9688 1.01356,-0.02 2.01423,-0.046 2.96875,-0.031 z m 72.28125,5.375 c -0.90603,0.03 -1.78013,0.1119 -2.65625,0.25 -13.14187,2.0708 -22.69922,16.0068 -21.75,32.5625 1.0125,17.6594 13.59733,31.5996 28.09375,31.125 14.4964,-0.4747 25.41876,-15.1844 24.40625,-32.8438 -1.0125,-17.6594 -13.59735,-31.5683 -28.09375,-31.0937 z m -56.125,9.375 c -1.22822,0.026 -2.43197,0.1367 -3.65625,0.375 -0.8706,0.1694 -1.76331,0.4059 -2.625,0.6875 -13.78704,4.5043 -20.86011,21.8689 -15.78125,38.8125 5.07887,16.9435 20.40046,27.0667 34.1875,22.5625 13.78703,-4.5043 20.82887,-21.9002 15.75,-38.8438 -4.31504,-14.3954 -16.00217,-23.8409 -27.875,-23.5937 z m 55.71875,9.2812 c 7.80094,-0.2554 14.5489,7.247 15.09375,16.75 0.54486,9.503 -5.35532,17.4321 -13.15625,17.6875 -7.80093,0.2554 -14.54888,-7.247 -15.09375,-16.75 -0.54485,-9.503 5.35533,-17.4321 13.15625,-17.6875 z m 32.9375,8.4063 c 0.10776,0.9088 0.16555,1.822 0.21875,2.75 1.16216,20.2694 -11.36105,37.1427 -28,37.6875 -12.18927,0.399 -23.21646,-8.0667 -28.6875,-20.5938 -1.02711,13.4066 -8.40695,24.8886 -19.84375,28.625 -15.82475,5.17 -33.38924,-6.3959 -39.21875,-25.8437 -0.24917,-0.8313 -0.4575,-1.6681 -0.65625,-2.5 -12.12716,11.8839 -18.36258,26.1813 -15.875,40.3124 5.1169,29.0674 45.14989,46.2852 89.375,38.5 44.22511,-7.7852 75.92939,-37.6201 70.8125,-66.6874 -2.45682,-13.9564 -12.97883,-25.203 -28.125,-32.25 z m -86,0.5312 c 6.15941,0.2157 12.10178,5.208 14.34375,12.6875 2.73308,9.1178 -1.0808,18.4824 -8.5,20.9063 -7.4192,2.4238 -15.64192,-3.0072 -18.375,-12.125 -2.73308,-9.1179 1.0808,-18.4824 8.5,-20.9063 0.9274,-0.303 1.84083,-0.4654 2.78125,-0.5312 0.41143,-0.029 0.83937,-0.046 1.25,-0.031 z m 63.6875,55.1562 c -14.24271,22.2687 -34.21792,24.395 -53.625,11.0313 19.4805,5.8924 37.58573,1.0442 53.625,-11.0313 z"
       id="path3030"
       inkscape:connector-curvature="0"
       inkscape:export-filename="/home/abie/Projects/hafs.in/img/frog-circle.png"
       inkscape:export-xdpi="113.46"
       inkscape:export-ydpi="113.46" />
    <path
       inkscape:connector-curvature="0"
       id="path3870"
       d="m -99.184356,876.73472 c -24.683224,5.63626 -32.064744,13.2239 -41.918044,25.11233 13.88309,-10.3899 26.5079,-16.00978 44.195144,-17.41506 l -1.12251,-3.84864 -1.15459,-3.84863 z m -11.994914,14.01544 c -1.03994,0.0341 -2.04122,0.1302 -3.04684,0.28865 -13.5456,2.1344 -23.76412,15.26935 -24.9199,31.68708 -6.5994,-15.34672 -20.83416,-24.45787 -34.44527,-21.80892 -0.99927,0.19449 -1.99364,0.47866 -2.98269,0.8018 -13.95091,4.55782 -21.90286,20.58902 -19.59596,37.65246 -16.64661,13.97527 -25.60437,31.77414 -22.5145,49.32665 5.67975,32.26482 49.82604,51.43782 98.62123,42.84812 48.795194,-8.5897 83.742874,-41.69312 78.063124,-73.9579 -3.09099,-17.55879 -17.57538,-31.23051 -38.00526,-38.67877 -3.81433,-16.54831 -16.66149,-28.6343 -31.173934,-28.15917 z m -75.75394,0.51315 c -3.74239,0.0744 -7.89349,0.40705 -12.60427,0.99423 l 0.25657,4.009 0.22451,3.97692 c 17.10386,-4.7192 30.90199,-3.77359 47.49855,1.2508 -10.8231,-6.34478 -19.15833,-10.55354 -35.37536,-10.23095 z m 75.24079,5.35602 c 14.496404,-0.47461 27.082524,13.45038 28.095024,31.10978 1.01251,17.65941 -9.91035,32.36707 -24.406754,32.84168 -14.49642,0.4746 -27.08252,-13.48245 -28.09502,-31.14186 -0.94922,-16.5557 8.60291,-30.48224 21.74478,-32.55303 0.87612,-0.13806 1.75594,-0.22691 2.66197,-0.25657 z m -56.12591,9.365 c 11.87283,-0.24718 23.55548,9.20953 27.87052,23.60496 5.07887,16.94358 -1.96029,34.33483 -15.74732,38.83912 -13.78704,4.50429 -29.10983,-5.60298 -34.1887,-22.54657 -5.07886,-16.94359 1.99236,-34.33483 15.7794,-38.83913 0.86169,-0.28152 1.7593,-0.50408 2.6299,-0.67351 1.22428,-0.23827 2.42798,-0.35929 3.6562,-0.38487 z m 55.70897,9.30087 c -7.80092,0.25539 -13.69435,8.16862 -13.1495,17.67164 0.54487,9.50304 7.30496,16.99696 15.10589,16.74156 7.80093,-0.2554 13.694364,-8.16862 13.149504,-17.67165 -0.54485,-9.50303 -7.304954,-16.99695 -15.105894,-16.74155 z m 32.937894,8.40285 c 15.14617,7.04703 25.67028,18.27597 28.1271,32.2323 5.11689,29.06739 -26.58975,58.92445 -70.814864,66.70965 -44.22511,7.7852 -84.23554,-9.451 -89.35244,-38.51841 -2.48758,-14.13115 3.74845,-28.4305 15.87561,-40.31443 0.19875,0.83195 0.39227,1.67035 0.64144,2.50161 5.82951,19.44782 23.39924,31.02001 39.22399,25.84999 11.4368,-3.73645 18.82543,-15.20157 19.85254,-28.60818 5.47104,12.52712 16.48305,20.98927 28.67232,20.59019 16.638954,-0.54475 29.160964,-17.41507 27.998804,-37.68453 -0.0532,-0.92796 -0.11674,-1.84939 -0.2245,-2.75819 z m -87.235694,0.54522 c -0.94042,0.0658 -1.86286,0.24224 -2.79026,0.54522 -7.4192,2.42388 -11.23215,11.79309 -8.49907,20.91091 2.73308,9.11783 10.95803,14.54709 18.37723,12.1232 7.4192,-2.42389 11.23214,-11.79308 8.49906,-20.91091 -2.39144,-7.97809 -9.00403,-13.12891 -15.58696,-12.66842 z m 64.94569,55.13168 c -16.03927,12.07545 -34.1438,16.92515 -53.6243,11.03275 19.40708,13.3638 39.38159,11.2359 53.6243,-11.03275 z"
       style="fill:#005c94;fill-opacity:0.92441861;stroke:none" />
  </g>
</svg>
